<svg width="79" height="75" viewBox="0 0 79 75" fill="none" xmlns="http://www.w3.org/2000/svg">
<path d="M78.1733 73.56C78.3333 73.56 78.4133 73.8 78.4133 74.28C78.4133 74.76 78.3333 75 78.1733 75C75.9333 75 74.0933 74.96 72.6533 74.88L63.6533 74.76L55.0133 74.88C53.4933 74.96 51.4133 75 48.7733 75C48.6133 75 48.4933 74.76 48.4133 74.28C48.4133 73.8 48.5333 73.56 48.7733 73.56C51.2533 73.56 53.0133 73.36 54.0533 72.96C55.1733 72.56 55.8933 71.8 56.2133 70.68C56.5333 69.56 56.6933 67.76 56.6933 65.28V37.68H22.1333V65.28C22.1333 67.68 22.3333 69.44 22.7333 70.56C23.2133 71.68 24.0133 72.48 25.1333 72.96C26.2533 73.36 28.0133 73.56 30.4133 73.56C30.6533 73.56 30.7733 73.8 30.7733 74.28C30.7733 74.76 30.6533 75 30.4133 75C27.7733 75 25.7333 74.96 24.2933 74.88L15.4133 74.76L7.13328 74.88C5.61328 74.96 3.61328 75 1.13328 75C0.893282 75 0.773281 74.76 0.773281 74.28C0.773281 73.8 0.893282 73.56 1.13328 73.56C3.53328 73.56 5.25328 73.36 6.29328 72.96C7.41328 72.56 8.13328 71.8 8.45328 70.68C8.85328 69.56 9.05328 67.76 9.05328 65.28V9.72C9.13328 6.36 8.65328 4.16 7.61328 3.12C6.57328 2 4.41328 1.44 1.13328 1.44C0.893282 1.44 0.773281 1.2 0.773281 0.719998C0.773281 0.239999 0.893282 0 1.13328 0L6.89328 0.119998C10.4133 0.279996 13.2533 0.359995 15.4133 0.359995C17.5733 0.359995 20.4933 0.279996 24.1733 0.119998L30.2933 0C30.4533 0 30.5333 0.239999 30.5333 0.719998C30.5333 1.2 30.4533 1.44 30.2933 1.44C27.8933 1.44 26.1333 1.68 25.0133 2.15999C23.8933 2.64 23.1333 3.48 22.7333 4.68C22.4133 5.8 22.2133 7.56 22.1333 9.95999V34.32H56.5733V9.95999C56.5733 6.51999 56.0533 4.24 55.0133 3.12C54.0533 2 51.9333 1.44 48.6533 1.44C48.4933 1.44 48.3733 1.2 48.2933 0.719998C48.2933 0.239999 48.4133 0 48.6533 0L54.5333 0.119998C58.0533 0.279996 60.9333 0.359995 63.1733 0.359995C65.3333 0.359995 68.1733 0.279996 71.6933 0.119998L77.8133 0C78.0533 0 78.1733 0.239999 78.1733 0.719998C78.1733 1.2 78.0533 1.44 77.8133 1.44C75.4133 1.44 73.6533 1.68 72.5333 2.15999C71.4933 2.55999 70.7733 3.32 70.3733 4.44C69.9733 5.56 69.6933 7.32 69.5333 9.72V65.28C69.5333 67.6 69.7733 69.36 70.2533 70.56C70.8133 71.68 71.6933 72.48 72.8933 72.96C74.0933 73.36 75.8533 73.56 78.1733 73.56Z" fill="#272727"/>
</svg>
